<svg width="227" height="295" viewBox="0 0 227 295" fill="none" xmlns="http://www.w3.org/2000/svg">
<path d="M47.6821 265.964C83.7304 268.437 139.879 257.038 131.3 201.343C126.125 167.748 100.058 137.636 66.5681 143.453V143.453C31.5973 149.527 60.5517 208.885 95.8319 212.778C119.496 215.39 146.471 205.744 170.078 169.386C187.947 141.866 194.561 107.985 187.417 75.9594C185.048 65.3382 181.6 53.9425 176.682 42.5293" stroke="white" stroke-opacity="0.75" stroke-width="1.5" stroke-dasharray="8 8"/>
<path d="M161.771 13.8666C161.777 11.1575 165.086 9.84261 166.949 11.8092L183.697 29.4871C185.157 31.0275 184.599 33.5548 182.627 34.3383L165.831 41.0122C163.859 41.7958 161.719 40.3403 161.723 38.2183L161.771 13.8666Z" fill="#FF7A00"/>
</svg>
